<?xml version="1.0" standalone="no"?>
<!DOCTYPE svg PUBLIC "-//W3C//DTD SVG 20010904//EN"
 "http://www.w3.org/TR/2001/REC-SVG-20010904/DTD/svg10.dtd">
<svg version="1.0" xmlns="http://www.w3.org/2000/svg"
 width="607.000000pt" height="607.000000pt" viewBox="0 0 607.000000 607.000000"
 preserveAspectRatio="xMidYMid meet">
<metadata>
Created by potrace 1.14, written by Peter Selinger 2001-2017
</metadata>
<g transform="translate(0.000000,607.000000) scale(0.100000,-0.100000)"
fill="#000000" stroke="none">
<path d="M1145 6052 c-49 -32 -105 -96 -115 -133 -11 -37 -14 -1005 -4 -1057
7 -37 65 -107 104 -127 61 -31 522 -27 554 6 6 5 18 9 27 9 10 0 53 33 96 73
114 106 118 107 270 107 114 0 132 -3 168 -23 31 -18 45 -35 62 -77 l22 -55 1
-826 c0 -787 1 -827 18 -842 17 -15 64 -17 474 -17 428 0 456 1 471 18 16 17
17 83 17 746 0 775 2 812 50 906 24 47 86 104 135 125 22 9 51 23 65 30 81 41
330 35 525 -14 22 -6 60 -15 85 -20 25 -6 78 -24 119 -41 40 -16 79 -30 86
-30 17 0 117 -41 135 -56 8 -6 53 -28 99 -48 46 -20 91 -42 100 -50 25 -21
114 -30 174 -16 118 28 188 168 145 291 -27 77 -366 454 -554 614 -113 97
-310 238 -377 271 -49 23 -95 50 -113 65 -23 19 -193 89 -216 89 -11 0 -40 9
-66 19 -133 54 -308 73 -662 74 -261 1 -293 -1 -380 -21 -52 -12 -104 -26
-115 -31 -11 -5 -51 -22 -90 -37 -38 -15 -81 -35 -95 -44 -14 -9 -40 -24 -57
-33 -18 -10 -47 -24 -65 -34 -25 -13 -56 -16 -156 -14 -68 1 -134 6 -147 11
-12 5 -44 30 -71 57 -59 58 -88 78 -174 117 -65 29 -66 29 -290 33 -209 4
-227 3 -255 -15z"/>
<path d="M2333 2893 c-35 -3 -49 -12 -92 -58 l-51 -54 0 -83 c0 -46 -5 -211
-10 -368 -6 -157 -14 -478 -20 -715 -5 -236 -15 -637 -21 -890 -5 -253 -7
-483 -4 -511 5 -45 14 -60 60 -112 39 -42 70 -66 109 -81 53 -22 58 -22 522
-19 323 3 480 8 504 16 19 7 60 38 93 69 81 81 91 120 83 307 -4 78 -11 339
-17 581 -20 936 -30 1378 -37 1591 l-7 221 -29 37 c-60 80 -32 76 -566 74
-261 -1 -494 -3 -517 -5z"/>
</g>
</svg>
