<?xml version="1.0" encoding="UTF-8"?>
<svg width="400" height="400" viewBox="0 0 400 400" fill="none" xmlns="http://www.w3.org/2000/svg">
  <!-- Laptop -->
  <rect x="100" y="200" width="200" height="120" rx="10" fill="#E5E7EB"/>
  <rect x="120" y="220" width="160" height="80" fill="#1E40AF"/>
  
  <!-- Person -->
  <circle cx="200" cy="160" r="40" fill="#4B5563"/> <!-- Head -->
  <rect x="180" y="140" width="10" height="5" fill="#000000"/> <!-- Eye -->
  <rect x="210" y="140" width="10" height="5" fill="#000000"/> <!-- Eye -->
  <path d="M185 155 Q200 165 215 155" stroke="#000000" fill="none" stroke-width="2"/> <!-- Smile -->
  
  <!-- Body -->
  <rect x="170" y="200" width="60" height="80" fill="#3B82F6"/> <!-- Shirt -->
  <rect x="160" y="280" width="80" height="40" fill="#1F2937"/> <!-- Pants -->
  
  <!-- Arms -->
  <rect x="140" y="210" width="30" height="60" rx="10" fill="#3B82F6"/>
  <rect x="230" y="210" width="30" height="60" rx="10" fill="#3B82F6"/>
  
  <!-- Light Bulb -->
  <circle cx="300" cy="100" r="30" fill="#FCD34D"/>
  <path d="M300 70 L300 50 M280 80 L265 65 M320 80 L335 65 M270 100 L250 100 M330 100 L350 100" 
        stroke="#FCD34D" stroke-width="4"/>
  
  <!-- Glasses -->
  <rect x="175" y="135" width="20" height="15" rx="5" fill="none" stroke="#000000" stroke-width="2"/>
  <rect x="205" y="135" width="20" height="15" rx="5" fill="none" stroke="#000000" stroke-width="2"/>
  <line x1="195" y1="142" x2="205" y2="142" stroke="#000000" stroke-width="2"/>
</svg> 